<?xml version="1.0" encoding="UTF-8"?>
<svg width="70px" height="70px" viewBox="0 0 70 70" version="1.1" xmlns="http://www.w3.org/2000/svg" xmlns:xlink="http://www.w3.org/1999/xlink">
    <title>logo-light</title>
    <defs>
        <linearGradient x1="50%" y1="0%" x2="50%" y2="100%" id="linearGradient-1">
            <stop stop-color="#533DFF" offset="0%"></stop>
            <stop stop-color="#2C15FF" stop-opacity="0" offset="100%"></stop>
        </linearGradient>
        <linearGradient x1="50%" y1="0%" x2="50%" y2="100%" id="linearGradient-2">
            <stop stop-color="#533DFF" offset="0%"></stop>
            <stop stop-color="#2C15FF" stop-opacity="0" offset="100%"></stop>
        </linearGradient>
        <linearGradient x1="50%" y1="0%" x2="50%" y2="100%" id="linearGradient-3">
            <stop stop-color="#533DFF" offset="0%"></stop>
            <stop stop-color="#2C15FF" stop-opacity="0" offset="100%"></stop>
        </linearGradient>
        <linearGradient x1="50%" y1="0%" x2="50%" y2="100%" id="linearGradient-4">
            <stop stop-color="#533DFF" offset="0%"></stop>
            <stop stop-color="#2C15FF" stop-opacity="0" offset="100%"></stop>
        </linearGradient>
        <linearGradient x1="50%" y1="0%" x2="50%" y2="100%" id="linearGradient-5">
            <stop stop-color="#533DFF" offset="0%"></stop>
            <stop stop-color="#2C15FF" stop-opacity="0" offset="100%"></stop>
        </linearGradient>
        <linearGradient x1="50%" y1="0%" x2="50%" y2="100%" id="linearGradient-6">
            <stop stop-color="#23E1FF" offset="0%"></stop>
            <stop stop-color="#00CCFF" stop-opacity="0" offset="100%"></stop>
        </linearGradient>
        <linearGradient x1="50%" y1="0%" x2="50%" y2="69.3739976%" id="linearGradient-7">
            <stop stop-color="#23E1FF" offset="0%"></stop>
            <stop stop-color="#00CCFF" stop-opacity="0" offset="100%"></stop>
        </linearGradient>
    </defs>
    <g id="logo-light" stroke="none" stroke-width="1" fill="none" fill-rule="evenodd">
        <g id="编组-2" transform="translate(36.621320, 40.449747) rotate(-45.000000) translate(-36.621320, -40.449747) translate(8.121320, 0.949747)">
            <path d="M19.4850704,61.1694291 L19.4850704,15.504225 C19.4850704,10.8031995 21.9914205,6.57807818 26.0948767,4.14152858 L28.5415116,2.68876611 L30.9881464,4.14152858 C35.0916027,6.57807818 37.5979527,10.8031995 37.5979527,15.504225 L37.5979527,61.1694291" id="路径" stroke="url(#linearGradient-1)" stroke-width="0.5" stroke-linecap="round" stroke-dasharray="1.356000053882599,1.356000053882599"></path>
            <path d="M16.7406943,61.1694291 L16.7406943,13.8170134 C16.7406943,8.58756065 19.8359121,3.96706777 24.6756359,1.76164673 L28.5415116,0 L32.4073873,1.76164673 C37.2471111,3.96706777 40.3423289,8.58756065 40.3423289,13.8170134 L40.3423289,61.1694291" id="路径" stroke="url(#linearGradient-2)" stroke-width="0.5" stroke-linecap="round" stroke-dasharray="1.356000053882599,1.356000053882599"></path>
            <path d="M44.2994272,22.7147697 C45.1885415,22.1639268 46.1961812,21.7716143 47.2849456,21.5815799 C51.2546394,22.2744556 54.1458859,25.6563583 54.1458859,29.6068494 L54.1458859,71.2627474" id="路径" stroke="url(#linearGradient-3)" stroke-width="0.5" stroke-linecap="round" stroke-dasharray="1.356000053882599,1.356000053882599"></path>
            <path d="M2.88159492,22.6537641 C3.77070927,22.1029212 4.778349,21.7106087 5.86711335,21.5205743 C9.83680711,22.21345 12.7280536,25.5953526 12.7280536,29.5458437 L12.7280536,71.2017418" id="路径备份" stroke="url(#linearGradient-3)" stroke-width="0.5" stroke-linecap="round" stroke-dasharray="1.356000053882599,1.356000053882599" transform="translate(7.804824, 46.361158) scale(-1, 1) translate(-7.804824, -46.361158) "></path>
            <path d="M13.9963182,61.1694291 L13.9963182,13.0814965 C13.9963182,8.23750463 16.6561209,3.90249084 20.9588248,1.51634908 M36.1241983,1.51634908 C40.4269023,3.90249084 43.086705,8.23750463 43.086705,13.0814965 L43.086705,61.1694291" id="形状" stroke="url(#linearGradient-4)" stroke-width="0.5" stroke-linecap="round" stroke-dasharray="1.356000053882599,1.356000053882599"></path>
            <path d="M44.2795926,19.5753735 C45.1115426,19.0961534 46.0041391,18.6980842 46.94805,18.3937997 L47.2574648,18.294055 L47.5668796,18.3937997 C53.1958953,20.2084015 57,25.358301 57,31.1641164 L57,69.9183644" id="路径" stroke="url(#linearGradient-5)" stroke-width="0.5" stroke-linecap="round" stroke-dasharray="1.356000053882599,1.356000053882599"></path>
            <path d="M0,19.5753735 C0.831950013,19.0961534 1.72454657,18.6980842 2.66845746,18.3937997 L2.97787222,18.294055 L3.28728699,18.3937997 C8.91630273,20.2084015 12.7204074,25.358301 12.7204074,31.1641164 L12.7204074,69.9183644" id="路径备份-2" stroke="url(#linearGradient-5)" stroke-width="0.5" stroke-linecap="round" stroke-dasharray="1.356000053882599,1.356000053882599" transform="translate(6.360204, 44.106210) scale(-1, 1) translate(-6.360204, -44.106210) "></path>
            <path d="M28.5415116,6.58747698 L28.5415116,6.58747698 L28.5415116,6.58747698 C32.3692639,8.21799418 34.8535766,11.976558 34.8535766,16.1371198 L34.8535766,61.1694291 L34.8535766,61.1694291 L22.2294465,61.1694291 L22.2294465,16.1371198 C22.2294465,11.976558 24.7137593,8.21799418 28.5415116,6.58747698 Z" id="矩形" fill="url(#linearGradient-6)"></path>
            <path d="M47.4777067,24.0749021 L47.4777067,24.0749021 L47.4777067,24.0749021 C49.9330902,24.8767786 51.5942709,27.1668077 51.5942709,29.7498125 L51.5942709,78.6568542 L51.5942709,78.6568542 L43.3611426,78.6568542 L43.3611426,29.7498125 C43.3611426,27.1668077 45.0223233,24.8767786 47.4777067,24.0749021 Z" id="矩形备份" fill="url(#linearGradient-7)"></path>
            <path d="M9.60531639,24.0749021 L9.60531639,24.0749021 L9.60531639,24.0749021 C12.0606999,24.8767786 13.7218806,27.1668077 13.7218806,29.7498125 L13.7218806,78.6568542 L13.7218806,78.6568542 L5.48875223,78.6568542 L5.48875223,29.7498125 C5.48875223,27.1668077 7.14993294,24.8767786 9.60531639,24.0749021 Z" id="矩形备份-2" fill="url(#linearGradient-7)"></path>
        </g>
    </g>
</svg>