<?xml version="1.0" encoding="UTF-8" standalone="no"?>
<!DOCTYPE svg PUBLIC "-//W3C//DTD SVG 1.1//EN" "http://www.w3.org/Graphics/SVG/1.1/DTD/svg11.dtd">
<svg width="100%" height="100%" viewBox="0 0 32 32" version="1.1" xmlns="http://www.w3.org/2000/svg" xmlns:xlink="http://www.w3.org/1999/xlink" xml:space="preserve" xmlns:serif="http://www.serif.com/" style="fill-rule:evenodd;clip-rule:evenodd;stroke-linejoin:round;stroke-miterlimit:2;">
    <g transform="matrix(1.55477,0,0,1.55477,-8.87631,-8.84858)">
        <g id="Layer_2">
            <g id="Layer_1-2">
                <g>
                    <path d="M17.2,12.9L20.8,10.8L20.8,15L17.2,12.9ZM20.8,21.9L16,24.7L11.2,21.9L11.2,17L16,19.8L20.8,17L20.8,21.9ZM11.2,10.8L14.8,12.9L11.2,15L11.2,10.8ZM16.6,13.9L20.2,16L16.6,18.1L16.6,13.9ZM15.4,18.1L11.8,16L15.4,13.9L15.4,18.1ZM20.2,9.8L16,12.2L11.8,9.8L16,7.3L20.2,9.8ZM10,9.4L10,22.5L16,25.9L22,22.5L22,9.4L16,6L10,9.4Z" style="fill:rgb(19,181,236);"/>
                </g>
            </g>
        </g>
    </g>
</svg>
